<?xml version="1.0" encoding="UTF-8"?>
<svg width="512" height="512" version="1.1" viewBox="0 0 512 512" xmlns="http://www.w3.org/2000/svg">
  <!-- Document background -->
  <rect x="96" y="64" width="320" height="384" rx="16" ry="16" fill="#ffffff" stroke="#1a1a1a" stroke-width="8"/>

  <!-- Markdown "M" symbol -->
  <g transform="translate(256, 256)" fill="#0078d4">
    <!-- Left vertical bar of M -->
    <rect x="-80" y="-64" width="24" height="128" rx="4"/>

    <!-- Middle peak of M -->
    <path d="M -80,-64 L -32,0 L -32,-64 L -8,-64 L -8,0 L 40,-64 L 40,64 L 16,64 L 16,-12 L -32,52 L -80,52 Z" />

    <!-- Right vertical bar of M -->
    <rect x="56" y="-64" width="24" height="128" rx="4"/>
  </g>

  <!-- Top-right corner fold -->
  <path d="M 368,64 L 368,112 L 416,112 Z" fill="#e0e0e0"/>
  <path d="M 368,64 L 368,112 L 416,112 Z" fill="none" stroke="#1a1a1a" stroke-width="4"/>

  <!-- Horizontal lines suggesting text -->
  <rect x="128" y="340" width="160" height="8" rx="4" fill="#cccccc"/>
  <rect x="128" y="364" width="256" height="8" rx="4" fill="#cccccc"/>
  <rect x="128" y="388" width="200" height="8" rx="4" fill="#cccccc"/>
</svg>
